<mxfile host="app.diagrams.net" modified="2022-10-24T03:19:55.553Z" agent="5.0 (Macintosh; Intel Mac OS X 10_15_7) AppleWebKit/605.1.15 (KHTML, like Gecko) Version/16.0 Safari/605.1.15" etag="bnSEH33bAz0rbtqsZgHW" version="20.4.2" type="github">
  <diagram id="BRs-CJyWfkA4xhsf3p_j" name="Page-1">
    <mxGraphModel dx="1228" dy="668" grid="1" gridSize="10" guides="1" tooltips="1" connect="1" arrows="1" fold="1" page="1" pageScale="1" pageWidth="850" pageHeight="1100" math="0" shadow="0">
      <root>
        <mxCell id="0" />
        <mxCell id="1" parent="0" />
        <mxCell id="TNJZNchaYgpPqnW8b6fj-1" value="SHIP" style="rounded=0;whiteSpace=wrap;html=1;" vertex="1" parent="1">
          <mxGeometry x="280" y="160" width="50" height="20" as="geometry" />
        </mxCell>
        <mxCell id="TNJZNchaYgpPqnW8b6fj-2" value="PORT" style="rounded=0;whiteSpace=wrap;html=1;" vertex="1" parent="1">
          <mxGeometry x="280" y="240" width="50" height="20" as="geometry" />
        </mxCell>
        <mxCell id="TNJZNchaYgpPqnW8b6fj-3" value="SEA / OCEAN / LAKE" style="rounded=0;whiteSpace=wrap;html=1;" vertex="1" parent="1">
          <mxGeometry x="280" y="400" width="140" height="20" as="geometry" />
        </mxCell>
        <mxCell id="TNJZNchaYgpPqnW8b6fj-18" value="&lt;u&gt;Sname&lt;/u&gt;" style="rounded=0;whiteSpace=wrap;html=1;" vertex="1" parent="1">
          <mxGeometry x="280" y="200" width="65" height="20" as="geometry" />
        </mxCell>
        <mxCell id="TNJZNchaYgpPqnW8b6fj-19" value="Owner" style="rounded=0;whiteSpace=wrap;html=1;" vertex="1" parent="1">
          <mxGeometry x="345" y="200" width="65" height="20" as="geometry" />
        </mxCell>
        <mxCell id="TNJZNchaYgpPqnW8b6fj-21" value="Type" style="rounded=0;whiteSpace=wrap;html=1;" vertex="1" parent="1">
          <mxGeometry x="625" y="200" width="65" height="20" as="geometry" />
        </mxCell>
        <mxCell id="TNJZNchaYgpPqnW8b6fj-22" value="Pname" style="rounded=0;whiteSpace=wrap;html=1;" vertex="1" parent="1">
          <mxGeometry x="560" y="200" width="65" height="20" as="geometry" />
        </mxCell>
        <mxCell id="TNJZNchaYgpPqnW8b6fj-25" value="State / &amp;nbsp;Country Name" style="rounded=0;whiteSpace=wrap;html=1;" vertex="1" parent="1">
          <mxGeometry x="410" y="200" width="150" height="20" as="geometry" />
        </mxCell>
        <mxCell id="TNJZNchaYgpPqnW8b6fj-34" value="&lt;u&gt;Name&lt;/u&gt;" style="rounded=0;whiteSpace=wrap;html=1;" vertex="1" parent="1">
          <mxGeometry x="280" y="360" width="65" height="20" as="geometry" />
        </mxCell>
        <mxCell id="TNJZNchaYgpPqnW8b6fj-35" value="Continent" style="rounded=0;whiteSpace=wrap;html=1;" vertex="1" parent="1">
          <mxGeometry x="345" y="360" width="65" height="20" as="geometry" />
        </mxCell>
        <mxCell id="TNJZNchaYgpPqnW8b6fj-49" value="STATE / COUNTRY" style="rounded=0;whiteSpace=wrap;html=1;" vertex="1" parent="1">
          <mxGeometry x="280" y="320" width="120" height="20" as="geometry" />
        </mxCell>
        <mxCell id="TNJZNchaYgpPqnW8b6fj-50" value="SHIP_MOVEMENT" style="rounded=0;whiteSpace=wrap;html=1;" vertex="1" parent="1">
          <mxGeometry x="280" y="480" width="120" height="20" as="geometry" />
        </mxCell>
        <mxCell id="TNJZNchaYgpPqnW8b6fj-51" value="SHIP_TYPE" style="rounded=0;whiteSpace=wrap;html=1;" vertex="1" parent="1">
          <mxGeometry x="280" y="560" width="80" height="20" as="geometry" />
        </mxCell>
        <mxCell id="TNJZNchaYgpPqnW8b6fj-53" value="SHIP_AT_PORT" style="rounded=0;whiteSpace=wrap;html=1;" vertex="1" parent="1">
          <mxGeometry x="280" y="640" width="100" height="20" as="geometry" />
        </mxCell>
        <mxCell id="TNJZNchaYgpPqnW8b6fj-55" value="&lt;u&gt;Sname&lt;/u&gt;" style="rounded=0;whiteSpace=wrap;html=1;" vertex="1" parent="1">
          <mxGeometry x="280" y="520" width="65" height="20" as="geometry" />
        </mxCell>
        <mxCell id="TNJZNchaYgpPqnW8b6fj-56" value="&lt;u&gt;Date&lt;/u&gt;" style="rounded=0;whiteSpace=wrap;html=1;" vertex="1" parent="1">
          <mxGeometry x="345" y="520" width="65" height="20" as="geometry" />
        </mxCell>
        <mxCell id="TNJZNchaYgpPqnW8b6fj-59" value="Latitude" style="rounded=0;whiteSpace=wrap;html=1;" vertex="1" parent="1">
          <mxGeometry x="540" y="520" width="65" height="20" as="geometry" />
        </mxCell>
        <mxCell id="TNJZNchaYgpPqnW8b6fj-60" value="&lt;u&gt;Time&lt;/u&gt;" style="rounded=0;whiteSpace=wrap;html=1;" vertex="1" parent="1">
          <mxGeometry x="410" y="520" width="65" height="20" as="geometry" />
        </mxCell>
        <mxCell id="TNJZNchaYgpPqnW8b6fj-61" value="Longitude" style="rounded=0;whiteSpace=wrap;html=1;" vertex="1" parent="1">
          <mxGeometry x="475" y="520" width="65" height="20" as="geometry" />
        </mxCell>
        <mxCell id="TNJZNchaYgpPqnW8b6fj-62" value="&lt;u&gt;Type&lt;/u&gt;" style="rounded=0;whiteSpace=wrap;html=1;" vertex="1" parent="1">
          <mxGeometry x="280" y="600" width="65" height="20" as="geometry" />
        </mxCell>
        <mxCell id="TNJZNchaYgpPqnW8b6fj-63" value="Tonnage" style="rounded=0;whiteSpace=wrap;html=1;" vertex="1" parent="1">
          <mxGeometry x="345" y="600" width="65" height="20" as="geometry" />
        </mxCell>
        <mxCell id="TNJZNchaYgpPqnW8b6fj-67" value="Hull" style="rounded=0;whiteSpace=wrap;html=1;" vertex="1" parent="1">
          <mxGeometry x="410" y="600" width="65" height="20" as="geometry" />
        </mxCell>
        <mxCell id="TNJZNchaYgpPqnW8b6fj-72" value="EndDate" style="rounded=0;whiteSpace=wrap;html=1;" vertex="1" parent="1">
          <mxGeometry x="625" y="680" width="65" height="20" as="geometry" />
        </mxCell>
        <mxCell id="TNJZNchaYgpPqnW8b6fj-73" value="&lt;u&gt;startDate&lt;/u&gt;" style="rounded=0;whiteSpace=wrap;html=1;" vertex="1" parent="1">
          <mxGeometry x="560" y="680" width="65" height="20" as="geometry" />
        </mxCell>
        <mxCell id="TNJZNchaYgpPqnW8b6fj-77" value="&lt;u&gt;State / &amp;nbsp;Country Name&lt;/u&gt;" style="rounded=0;whiteSpace=wrap;html=1;" vertex="1" parent="1">
          <mxGeometry x="280" y="280" width="150" height="20" as="geometry" />
        </mxCell>
        <mxCell id="TNJZNchaYgpPqnW8b6fj-78" value="&lt;u&gt;Pname&lt;/u&gt;" style="rounded=0;whiteSpace=wrap;html=1;" vertex="1" parent="1">
          <mxGeometry x="430" y="280" width="65" height="20" as="geometry" />
        </mxCell>
        <mxCell id="TNJZNchaYgpPqnW8b6fj-79" value="Sea / Ocean / Lake Name" style="rounded=0;whiteSpace=wrap;html=1;" vertex="1" parent="1">
          <mxGeometry x="495" y="280" width="235" height="20" as="geometry" />
        </mxCell>
        <mxCell id="TNJZNchaYgpPqnW8b6fj-80" value="&lt;u&gt;Name&lt;/u&gt;" style="rounded=0;whiteSpace=wrap;html=1;" vertex="1" parent="1">
          <mxGeometry x="280" y="440" width="65" height="20" as="geometry" />
        </mxCell>
        <mxCell id="TNJZNchaYgpPqnW8b6fj-81" value="&lt;u&gt;State / &amp;nbsp;Country Name&lt;/u&gt;" style="rounded=0;whiteSpace=wrap;html=1;" vertex="1" parent="1">
          <mxGeometry x="280" y="680" width="150" height="20" as="geometry" />
        </mxCell>
        <mxCell id="TNJZNchaYgpPqnW8b6fj-82" value="&lt;u&gt;Pname&lt;/u&gt;" style="rounded=0;whiteSpace=wrap;html=1;" vertex="1" parent="1">
          <mxGeometry x="430" y="680" width="65" height="20" as="geometry" />
        </mxCell>
        <mxCell id="TNJZNchaYgpPqnW8b6fj-83" value="&lt;u&gt;Sname&lt;/u&gt;" style="rounded=0;whiteSpace=wrap;html=1;" vertex="1" parent="1">
          <mxGeometry x="495" y="680" width="65" height="20" as="geometry" />
        </mxCell>
      </root>
    </mxGraphModel>
  </diagram>
</mxfile>
